<?xml version="1.0" standalone="no"?>
<!DOCTYPE svg PUBLIC "-//W3C//DTD SVG 20010904//EN"
 "http://www.w3.org/TR/2001/REC-SVG-20010904/DTD/svg10.dtd">
<svg version="1.0" xmlns="http://www.w3.org/2000/svg"
 width="500.000000pt" height="500.000000pt" viewBox="0 0 500.000000 500.000000"
 preserveAspectRatio="xMidYMid meet">
<metadata>
Created by potrace 1.11, written by Peter Selinger 2001-2013
</metadata>
<g transform="translate(0.000000,500.000000) scale(0.100000,-0.100000)"
fill="#000000" stroke="none">
<path d="M1505 3652 c-65 -114 -202 -351 -303 -527 -102 -176 -279 -484 -395
-685 -115 -201 -251 -436 -301 -523 -50 -87 -103 -179 -117 -205 -35 -64 -286
-499 -311 -540 l-20 -32 353 2 353 3 49 85 c117 202 248 429 352 610 246 428
456 793 460 797 1 2 176 -300 276 -476 14 -25 50 -86 79 -136 29 -49 60 -103
68 -120 9 -16 31 -53 49 -82 18 -29 33 -54 33 -56 0 -3 38 -69 83 -148 46 -79
95 -164 109 -189 78 -140 163 -280 168 -280 6 0 235 390 286 485 6 11 87 153
181 315 93 162 181 315 195 340 14 25 49 86 78 135 29 50 62 106 73 125 10 19
71 125 135 235 63 110 139 242 169 293 29 51 59 103 67 115 34 54 34 53 -144
364 -95 164 -173 299 -174 301 -2 1 -16 -21 -32 -50 -54 -96 -69 -123 -125
-218 -31 -52 -66 -112 -77 -132 -52 -93 -298 -517 -319 -550 -12 -21 -23 -40
-23 -42 0 -2 -39 -71 -86 -153 -48 -81 -96 -164 -107 -183 -69 -122 -92 -160
-97 -160 -3 0 -120 199 -260 442 -140 243 -259 450 -265 460 -5 9 -20 34 -31
55 -30 53 -305 528 -308 530 -1 1 -55 -91 -121 -205z"/>
<path d="M3712 3104 c-59 -102 -261 -452 -288 -501 l-24 -42 50 -85 c27 -47
50 -88 50 -93 0 -4 8 -18 18 -31 l17 -22 37 62 c19 35 45 79 56 98 11 19 45
80 77 135 31 55 66 116 77 135 11 19 38 65 59 102 22 36 39 70 39 75 0 4 -29
59 -64 122 l-64 114 -40 -69z"/>
<path d="M3912 2818 c-19 -32 -115 -202 -179 -318 -17 -30 -56 -99 -87 -154
-31 -54 -56 -101 -56 -103 0 -3 23 -46 52 -97 28 -50 57 -102 64 -115 l12 -23
18 28 c9 16 25 41 35 56 11 15 19 29 19 32 0 4 114 206 139 246 15 23 117 202
130 228 11 20 4 35 -57 138 l-70 115 -20 -33z"/>
<path d="M4099 2508 c-6 -13 -35 -63 -64 -113 -236 -402 -266 -459 -256 -482
6 -13 92 -166 192 -341 100 -174 193 -337 207 -362 41 -76 12 -71 394 -68
l347 3 -282 491 c-155 270 -291 506 -302 526 -150 264 -211 368 -217 368 -4 0
-13 -10 -19 -22z"/>
</g>
</svg>
